<svg xmlns="http://www.w3.org/2000/svg" fill="none" viewBox="0 0 79 130">
  <path d="M22.575 97.913C35.68 85.38 44.687 77.136 57.79 64.601 46.354 59.84 35.15 42.692 17.163 20.47c0 0-12.771 1.3-14.377-2.602 0 0-4.376-8.126-2.16-10.932 0 0 1.327-1.613 2.763-1.42 0 0 4.228-4.814 7.046-5.169.842-.992 7.22.006 9.936 4.778 2.111-.179 8.04 1.95 8.776 8.318 5.291 4.883 57.65 38.889 48.751 53.78-15.161 20.363-22.988 42.797-41.973 62.061-.304.009-.606.013-.903.013-13.796.001-19.433-9.17-12.447-31.384" fill="url(#DfO2Ya6KhGa)"/>
  <defs>
    <linearGradient id="DfO2Ya6KhGa" x1="66.458" y1="31.057" x2="41.145" y2="66.566" gradientUnits="userSpaceOnUse">
      <stop stop-color="#F3B56B"/>
      <stop offset=".004" stop-color="#F3B56B"/>
      <stop offset="1" stop-color="#FCD7A8"/>
    </linearGradient>
  </defs>
</svg>
