<svg xmlns="http://www.w3.org/2000/svg" fill="none" viewBox="0 0 79 69">
  <path d="M33.217 65.855C15.804 59.097 9.704 37.28 0 42.008c5.71-16.546 45.313-12.566 53.736-10.864-2.077-6.323 1.789-10.49 2.799-11.064.278-2.308.653-5.168-.058-8.308l1.165-.287c2.354 5.131 2.065 4.897 3.528 10.207 10.06 3.716 3.616-10.824-1.398-14.162L58.885 0c2.976 2.916 7.259 7.156 8.581 13.912C77.88 28.04 84.478 50.843 69.015 55.338c-2.926 9.398-12.74 12.893-22.328 12.893-4.856 0-9.655-.896-13.47-2.377" fill="url(#o90J8hLv5V3a)"/>
  <defs>
    <linearGradient id="o90J8hLv5V3a" x1="46.154" y1="32.494" x2="12.315" y2="55.273" gradientUnits="userSpaceOnUse">
      <stop stop-color="#1A1840"/>
      <stop offset=".005" stop-color="#1A1840"/>
      <stop offset="1" stop-color="#332A7C"/>
    </linearGradient>
  </defs>
</svg>
