<svg xmlns="http://www.w3.org/2000/svg" fill="none" viewBox="0 0 54 86">
  <path d="M21.007 85.782c-.229 0-10.435-.158-14.803-28.432 0 0-6.937-19.318-6.14-24.76C5.222 28.271 33.41 10.503 33.867 9.995c1.898-3.77 4.019-6.568 7.01-6.808C42.474-.106 45.524-.477 47.613.421c2.977 1.278 6.673 6.557 5.443 8.718-.392.972-1.081 1.36-1.76 1.639-.792 1.604-1.299 2.716-2.772 3.852-3.334 2.069-5.236.888-8.48 2.353-9.937 6.426-15.973 13.364-25.067 20.36 0 0 2.425 5.37 5.346 15.592 0 0 12.835 27.204.688 32.847h-.004z" fill="url(#M7wrrKq9VP6La)"/>
  <defs>
    <linearGradient id="M7wrrKq9VP6La" x1="8.324" y1="37.194" x2="24.983" y2="42.196" gradientUnits="userSpaceOnUse">
      <stop stop-color="#FABF77"/>
      <stop offset=".003" stop-color="#FABF77"/>
      <stop offset="1" stop-color="#FDE4C0"/>
    </linearGradient>
  </defs>
</svg>
