<svg xmlns="http://www.w3.org/2000/svg" fill="none" viewBox="0 0 45 62">
  <path d="M3.079 51.115c-9.561-13.269 6.199-36.72 6.199-36.72 1.163-1.966-.117-11.687-.117-11.687C15.963-1.952 34.528.816 34.528.816c-1.332 2.835-2.02 8.16-.802 10.405 3.255.88 8.705 2.301 9.579 3.002 4.965 24.685-2.572 32.861-2.572 32.861C41.892 62.459 17.85 60.873 17.85 60.873a9.532 9.532 0 01-2.392.312c-7.798 0-12.38-10.069-12.38-10.069" fill="url(#cMfJrppTZ0Vla)"/>
  <defs>
    <linearGradient id="cMfJrppTZ0Vla" x1="9.056" y1="13.692" x2="28.637" y2="41.748" gradientUnits="userSpaceOnUse">
      <stop stop-color="#FABF77"/>
      <stop offset=".006" stop-color="#FABF77"/>
      <stop offset="1" stop-color="#FEF0D9"/>
    </linearGradient>
  </defs>
</svg>
