<svg xmlns="http://www.w3.org/2000/svg" fill="none" viewBox="0 0 63 108">
  <path d="M15.5 104.788c-3.604-2.234-6.233-3.144-8.3-4.806-15.195-12.201-2.704-49.575 4.386-64.275-.598-12.82-8.64-17.696-5.507-26.194C10.869-3.481 54.028-2.04 60.37 7.084c8.792 13.857-12.037 18.586-7.239 46.991 1.792 4.71 5.555 8.453 6.312 13.226.116 4.17-3.163 10.764-4.533 12.775.02 1.874-1.894 1.48-1.946 3.843-4.94 4.325-4.759 10.392 1.102 15.707-1.863 1.099-6.207 3.346-9.209 3.8-.686 1.799-1.693 3.669-1.693 3.669-11.38-1.409-25.534.852-25.534.852-.894-.518-1.315-2.653-2.13-3.159" fill="url(#yeDgnfxCRT9Wa)"/>
  <defs>
    <linearGradient id="yeDgnfxCRT9Wa" x1="1.458" y1="-9.833" x2="52.263" y2="98.432" gradientUnits="userSpaceOnUse">
      <stop stop-color="#FF7200"/>
      <stop offset=".008" stop-color="#FF7200"/>
      <stop offset=".45" stop-color="#FFA000"/>
      <stop offset=".457" stop-color="#FFA000"/>
      <stop offset="1" stop-color="#FFAE2B"/>
    </linearGradient>
  </defs>
</svg>
