<svg xmlns="http://www.w3.org/2000/svg" fill="none" viewBox="0 0 90 57">
  <path d="M.004 45.445C-.28 39.65 13.214 8.165 19.394.022c6.304-.506 15.363 7.918 23.699 16.343 8.278 8.37 15.842 16.738 19.282 16.354 10.898-10.274 28.76 3.364 26.487 8.41-2.23-.186-9.222-6.533-14.83-1.179-1.485 1.419-7.07 4.566-13.04 1.744-11.523-5.077-33.972-21.594-35.9-26.756-2.358 11.467-9.503 35.568-10.544 37.388-1.802 2.877-4.335 4.634-6.804 4.634-3.381-.001-6.643-3.296-7.74-11.515z" fill="url(#69XweJ3Zo2uWa)"/>
  <defs>
    <linearGradient id="69XweJ3Zo2uWa" x1="17.367" y1="39.66" x2="68.067" y2="21.011" gradientUnits="userSpaceOnUse">
      <stop stop-color="#FCB156"/>
      <stop offset=".995" stop-color="#FDDEB8"/>
      <stop offset="1" stop-color="#FDDEB8"/>
    </linearGradient>
  </defs>
</svg>
