<svg xmlns="http://www.w3.org/2000/svg" fill="none" viewBox="0 0 53 114">
  <path d="M32.908 113.197c-3.09-1.025-5.242-3.52-6.473-6.463-.425-1.014-.585-2.315-.786-3.4-.293-1.572-.671-3.037-1.317-4.508-.892-2.027-2.017-4.386-3.978-5.581-.892-.545-1.942-.892-2.927-1.23-1.51-.52-2.962-1.053-4.43-1.723-.944-.49-1.746-1.736-2.12-2.685-1.256-3.19-.283-7.274.851-10.347l.008-.02.01-.018c.674-1.18 1-3.018.99-4.347-.031-3.83-2.305-7.022-5.165-9.378-1.763-.984-3.477-3.002-4.364-4.77-2.553-5.084-.79-10.746 1.912-15.374.877-1.502 1.582-3.146 1.45-4.921-.124-1.644-.948-3.213-1.782-4.601-1.321-2.2-2.845-4.33-4.24-6.505-4.032-6.978 15.69-16.091 12.068-26.784L12.432 0l.53.218c2.498 1.023 5.053 2.324 7.42 3.615 5.039 2.746 10.03 6.03 14.285 9.893 8.066 7.325 13.317 16.757 7.951 27.42-.157 1.612-.37 3.308-.247 4.924.138 1.797.705 3.336 1.569 4.907 1.396 2.537 3.429 5.016 5.3 7.213 1.947 2.285 3.28 4.937 3.084 8.005-.354 5.576-5.877 10.926-9.712 14.54-.158.274-.33.538-.497.808-.938 1.515-.992 2.785-.843 4.548.155 1.821.555 3.699.974 5.474.732 3.096 1.634 6.174 2.567 9.214 1.396 4.547.07 9.276-4.22 11.663a9.715 9.715 0 01-4.723 1.23 9.418 9.418 0 01-2.962-.475" fill="url(#oORWi7HAmLqa)"/>
  <defs>
    <linearGradient id="oORWi7HAmLqa" x1="26.707" y1="-1.659" x2="23.405" y2="86.823" gradientUnits="userSpaceOnUse">
      <stop stop-color="#1369B1"/>
      <stop offset=".999" stop-color="#99CCF6"/>
      <stop offset="1" stop-color="#99CCF6"/>
    </linearGradient>
  </defs>
</svg>
