<svg xmlns="http://www.w3.org/2000/svg" fill="none" viewBox="0 0 52 85">
  <path d="M7.037 84.244c-2.093-.299-3.998-1.452-5.198-3.2C.384 78.922.22 76.323.851 73.882c.218-.842.737-1.737 1.128-2.516.567-1.13 1.029-2.233 1.324-3.468.406-1.702.825-3.725.162-5.415-.302-.77-.798-1.49-1.255-2.174C1.507 59.26.847 58.23.243 57.106c-.36-.759-.27-1.927-.052-2.704.732-2.609 3.296-4.713 5.476-6.105l.015-.01.015-.006c.988-.42 2.071-1.422 2.698-2.263 1.809-2.425 1.903-5.522 1.227-8.373-.64-1.463-.755-3.552-.47-5.089.822-4.421 4.636-7.142 8.546-8.764 1.27-.525 2.497-1.224 3.262-2.404.708-1.094.937-2.476 1.076-3.748.219-2.017.276-4.085.437-6.123.794-6.32 17.559-2.625 20.385-11.088L43.002 0l.23.39c1.084 1.84 2.07 3.88 2.944 5.823 1.86 4.14 3.435 8.592 4.268 13.058 1.58 8.468.382 16.917-8.088 21.063-.868.94-1.813 1.905-2.506 2.981-.772 1.197-1.15 2.437-1.356 3.84-.333 2.262-.237 4.796-.107 7.073.134 2.37-.294 4.676-1.883 6.514-2.885 3.34-8.916 4.068-13.055 4.508-.231.098-.466.182-.7.272-1.312.505-1.954 1.278-2.701 2.46-.772 1.22-1.418 2.593-2.001 3.912-1.018 2.298-1.92 4.666-2.784 7.027-1.167 3.185-3.8 5.402-7.124 5.402-.36 0-.727-.025-1.102-.079" fill="url(#rgtKIOxLksja)"/>
  <defs>
    <linearGradient id="rgtKIOxLksja" x1="54.694" y1="7.343" x2="10.337" y2="61.442" gradientUnits="userSpaceOnUse">
      <stop stop-color="#1369B1"/>
      <stop offset=".002" stop-color="#1369B1"/>
      <stop offset="1" stop-color="#B7D9F9"/>
    </linearGradient>
  </defs>
</svg>
