<svg xmlns="http://www.w3.org/2000/svg" fill="none" viewBox="0 0 78 57">
  <path d="M2.715 54.668C1.1 53.304.096 51.315.007 49.197c-.11-2.573 1.131-4.863 2.96-6.598.63-.597 1.545-1.08 2.29-1.532 1.08-.658 2.055-1.347 2.96-2.237 1.248-1.226 2.675-2.72 3.009-4.504.152-.813.115-1.686.089-2.51-.04-1.262-.053-2.484.032-3.757.096-.836.793-1.778 1.389-2.32 2.004-1.823 5.293-2.247 7.88-2.268h.016l.017.002c1.059.168 2.509-.106 3.486-.485 2.82-1.096 4.541-3.671 5.48-6.447.233-1.579 1.244-3.41 2.3-4.561 3.041-3.313 7.716-3.595 11.89-2.892 1.355.228 2.766.289 4.04-.308 1.18-.55 2.107-1.6 2.9-2.605C52 4.583 53.145 2.86 54.36 1.22c1.969-2.416 5.91-.768 10.226.88 4.505 1.72 9.419 3.44 12.933.543l.35-.287-.013.453c-.056 2.135-.302 4.389-.592 6.5-.618 4.495-1.644 9.106-3.306 13.334-3.15 8.016-8.646 14.541-18.023 13.558-1.234.336-2.547.654-3.706 1.197-1.289.604-2.266 1.456-3.184 2.535-1.483 1.741-2.745 3.939-3.843 5.939-1.142 2.08-2.728 3.807-5.049 4.522-4.216 1.299-9.714-1.287-13.457-3.111-.246-.04-.49-.093-.736-.141-1.38-.27-2.334.045-3.595.65-1.301.625-2.577 1.447-3.77 2.254-2.081 1.408-4.102 2.936-6.085 4.478-1.559 1.211-3.365 1.88-5.158 1.88-1.62 0-3.23-.546-4.638-1.735" fill="url(#swS96IgdLOba)"/>
  <defs>
    <linearGradient id="swS96IgdLOba" x1="82.91" y1="11.908" x2="16.632" y2="34.217" gradientUnits="userSpaceOnUse">
      <stop stop-color="#1369B1"/>
      <stop offset=".999" stop-color="#D3E8FD"/>
      <stop offset="1" stop-color="#D3E8FD"/>
    </linearGradient>
  </defs>
</svg>
