<svg xmlns="http://www.w3.org/2000/svg" fill="none" viewBox="0 0 44 96">
  <path d="M27.527 94.682c-2.585-.857-4.385-2.944-5.414-5.406-.355-.849-.49-1.936-.658-2.843-.245-1.316-.561-2.541-1.102-3.771-.745-1.696-1.687-3.669-3.326-4.668-.747-.456-1.625-.746-2.449-1.03-1.264-.434-2.478-.88-3.706-1.44-.79-.41-1.46-1.452-1.774-2.246-1.05-2.67-.235-6.085.712-8.654l.007-.018.009-.015c.563-.987.836-2.524.827-3.636-.026-3.203-1.928-5.874-4.32-7.844-1.475-.823-2.909-2.511-3.65-3.989-2.136-4.254-.661-8.99 1.6-12.86.733-1.256 1.322-2.631 1.21-4.117-.102-1.374-.792-2.686-1.489-3.848-1.104-1.84-2.379-3.62-3.547-5.44C-2.916 17.02 13.582 9.397 10.553.453L10.4 0l.442.182c2.09.856 4.227 1.945 6.206 3.023 4.216 2.299 8.392 5.044 11.95 8.277 6.747 6.126 11.14 14.015 6.652 22.935-.131 1.348-.31 2.766-.207 4.118.115 1.503.59 2.79 1.313 4.105 1.167 2.12 2.867 4.194 4.434 6.032 1.628 1.912 2.742 4.13 2.579 6.696-.297 4.664-4.916 9.14-8.124 12.161-.133.23-.276.45-.417.677-.784 1.267-.83 2.329-.705 3.805.13 1.523.464 3.093.816 4.578.612 2.59 1.366 5.164 2.147 7.706 1.168 3.804.058 7.76-3.53 9.756a8.134 8.134 0 01-3.951 1.029 7.888 7.888 0 01-2.478-.398" fill="url(#0rKC3Cgpnda)"/>
  <defs>
    <linearGradient id="0rKC3Cgpnda" x1="22.337" y1="-1.388" x2="19.58" y2="72.62" gradientUnits="userSpaceOnUse">
      <stop stop-color="#1369B1"/>
      <stop offset=".999" stop-color="#99CCF6"/>
      <stop offset="1" stop-color="#99CCF6"/>
    </linearGradient>
  </defs>
</svg>
