<svg xmlns="http://www.w3.org/2000/svg" fill="none" viewBox="0 0 60 54">
  <path d="M48.256 50.956c-1.46-1.512-2.951-3.018-4.508-4.43-.892-.811-1.85-1.643-2.853-2.315-.973-.65-1.725-1.024-2.9-.965-.21.01-.418.026-.626.03-3.316 1.065-8.176 2.554-11.513.977-1.837-.867-2.945-2.486-3.644-4.344-.672-1.785-1.456-3.756-2.477-5.373-.632-1.003-1.34-1.824-2.336-2.477-.895-.588-1.944-1.006-2.927-1.431-7.881-.3-11.657-6.356-13.316-13.366C.282 13.563-.02 9.623.001 5.828.011 4.046.076 2.15.281.376L.325 0 .58.28c2.6 2.853 6.956 1.95 10.933 1.05 3.708-.841 7.087-1.682 8.413.52.812 1.505 1.557 3.066 2.406 4.535.537.926 1.181 1.905 2.092 2.501.985.644 2.16.762 3.309.734 3.54-.086 7.377.703 9.501 3.806.74 1.079 1.36 2.716 1.364 4.05.449 2.41 1.569 4.747 3.774 5.989.764.43 1.932.829 2.829.816h.014l.014.002c2.14.325 4.812 1.066 6.255 2.813.43.52.895 1.383.876 2.086-.082 1.064-.238 2.075-.42 3.116-.119.678-.254 1.397-.224 2.088.065 1.517 1.07 2.923 1.957 4.086.644.845 1.37 1.532 2.186 2.203.563.463 1.263.972 1.714 1.543 1.308 1.652 2.064 3.695 1.67 5.812a6.37 6.37 0 01-2.893 4.21c-1.036.648-2.13.946-3.206.946-1.785-.001-3.526-.82-4.888-2.23" fill="url(#hg_pxbIv_5ka)"/>
  <defs>
    <linearGradient id="hg_pxbIv_5ka" x1="-5.294" y1="7.922" x2="46.941" y2="34.263" gradientUnits="userSpaceOnUse">
      <stop stop-color="#1369B1"/>
      <stop offset=".999" stop-color="#D3E8FD"/>
      <stop offset="1" stop-color="#D3E8FD"/>
    </linearGradient>
  </defs>
</svg>
