<svg xmlns="http://www.w3.org/2000/svg" fill="none" viewBox="0 0 66 48">
  <path d="M2.271 45.727A6.37 6.37 0 01.006 41.15c-.091-2.152.945-4.067 2.475-5.518.528-.5 1.294-.903 1.916-1.283.903-.548 1.719-1.125 2.477-1.87 1.043-1.025 2.236-2.275 2.516-3.767.127-.68.095-1.41.074-2.099-.033-1.056-.044-2.079.026-3.144.082-.698.665-1.487 1.162-1.94 1.677-1.524 4.428-1.878 6.592-1.897h.015l.013.002c.886.14 2.099-.088 2.917-.406 2.358-.916 3.799-3.07 4.583-5.392.194-1.32 1.04-2.853 1.925-3.816 2.543-2.77 6.454-3.006 9.946-2.418 1.133.19 2.313.241 3.378-.257.987-.46 1.764-1.338 2.426-2.179 1.05-1.333 2.007-2.774 3.025-4.147 1.647-2.02 4.943-.642 8.554.737 3.768 1.438 7.879 2.877 10.819.455l.291-.24-.01.377c-.047 1.786-.252 3.671-.494 5.437-.517 3.761-1.375 7.618-2.766 11.155-2.636 6.703-7.233 12.161-15.077 11.34-1.032.28-2.13.546-3.1 1.001-1.078.505-1.894 1.217-2.663 2.12-1.24 1.457-2.295 3.295-3.214 4.967-.956 1.74-2.282 3.185-4.224 3.782-3.527 1.087-8.125-1.075-11.256-2.601-.206-.033-.41-.078-.616-.118-1.155-.226-1.953.038-3.008.544-1.087.522-2.154 1.21-3.153 1.885-1.74 1.177-3.43 2.456-5.09 3.745C9.16 46.618 7.65 47.18 6.15 47.18c-1.355 0-2.702-.458-3.879-1.452" fill="url(#rin2DaLqrSRa)"/>
  <defs>
    <linearGradient id="rin2DaLqrSRa" x1="69.357" y1="9.957" x2="13.916" y2="28.621" gradientUnits="userSpaceOnUse">
      <stop stop-color="#1369B1"/>
      <stop offset=".999" stop-color="#D3E8FD"/>
      <stop offset="1" stop-color="#D3E8FD"/>
    </linearGradient>
  </defs>
</svg>
