<svg xmlns="http://www.w3.org/2000/svg" fill="none" viewBox="0 0 273 824">
  <path d="M.553 256.553c-.272-23.471-.408-35.207 4.356-45.484 4.763-10.278 13.806-17.759 31.89-32.722L223.78 23.644c21.265-17.594 31.897-26.39 40.511-22.337 8.613 4.053 8.613 17.852 8.613 45.451V723.25c0 47.141 0 70.711-14.644 85.356-14.645 14.644-38.215 14.644-85.356 14.644h-66.938c-46.643 0-69.965 0-84.574-14.44-14.608-14.44-14.879-37.761-15.419-84.401L.553 256.553z" fill="url(#JCTQ26tacYa)"/>
  <defs>
    <linearGradient id="JCTQ26tacYa" x1="57.367" y1="256.385" x2="350.169" y2="571.07" gradientUnits="userSpaceOnUse">
      <stop stop-color="#33A993"/>
      <stop offset="1" stop-color="#6FD0D7" stop-opacity="0"/>
    </linearGradient>
  </defs>
</svg>
